<svg width="237" height="13" viewBox="0 0 237 13" fill="none" xmlns="http://www.w3.org/2000/svg">
<path d="M11.8 0.639994H9.70403L6.04003 9.48799L2.36003 0.639994H0.280029V12H2.36003V5.93599L5.00003 12H7.08003L9.70403 5.93599V12H11.8V0.639994Z" fill="black"/>
<path d="M22.6462 9.31199L23.6542 12H26.1662L21.6382 0.639994H19.3662L14.8382 12H17.3342L18.3582 9.31199H22.6462ZM21.9262 7.42399H19.0622L20.5022 3.64799L21.9262 7.42399Z" fill="black"/>
<path d="M33.0777 5.37599V7.31199H36.4217C36.2937 8.25599 35.9577 8.92799 35.3817 9.34399C34.8057 9.75999 34.1337 9.96799 33.3977 9.96799C32.6937 9.96799 32.0857 9.82399 31.5577 9.51999C31.0297 9.23199 30.6297 8.79999 30.3417 8.25599C30.0537 7.71199 29.9097 7.08799 29.9097 6.36799C29.9097 5.66399 30.0537 5.00799 30.3417 4.41599C30.6297 3.82399 31.0297 3.35999 31.5417 3.02399C32.0537 2.68799 32.6297 2.51199 33.2697 2.51199C33.9737 2.51199 34.5977 2.70399 35.1737 3.05599C35.7497 3.42399 36.1817 3.93599 36.4857 4.59199L38.6137 3.85599C38.1657 2.79999 37.4617 1.96799 36.5337 1.34399C35.6057 0.719994 34.5177 0.399994 33.2697 0.399994C32.2297 0.399994 31.2697 0.671994 30.4057 1.21599C29.5417 1.75999 28.8537 2.47999 28.3417 3.39199C27.8297 4.31999 27.5897 5.31199 27.5897 6.36799C27.5897 7.47199 27.8137 8.46399 28.2777 9.34399C28.7257 10.224 29.3977 10.912 30.2777 11.424C31.1577 11.936 32.1977 12.192 33.3977 12.192C34.6137 12.192 35.6217 11.856 36.4377 11.152V12H38.5177V5.37599H33.0777Z" fill="black"/>
<path d="M49.5129 1.35999C48.6169 0.879993 47.6089 0.623994 46.4889 0.623994H42.3929V12H46.4889C47.6089 12 48.6329 11.76 49.5289 11.28C50.4249 10.8 51.1129 10.144 51.6249 9.27999C52.1209 8.41599 52.3769 7.43999 52.3769 6.31999C52.3769 5.23199 52.1209 4.23999 51.6089 3.37599C51.0969 2.51199 50.4089 1.83999 49.5129 1.35999ZM49.1129 9.10399C48.4729 9.79199 47.6089 10.128 46.4889 10.128H44.4889V2.51199H46.4889C47.5929 2.51199 48.4729 2.86399 49.1129 3.55199C49.7529 4.23999 50.0729 5.16799 50.0729 6.31999C50.0729 7.50399 49.7529 8.43199 49.1129 9.10399Z" fill="black"/>
<path d="M61.9305 9.31199L62.9385 12H65.4505L60.9225 0.639994H58.6505L54.1225 12H56.6185L57.6425 9.31199H61.9305ZM61.2105 7.42399H58.3465L59.7865 3.64799L61.2105 7.42399Z" fill="black"/>
<path d="M75.6352 9.91999H70.5792V0.639994H68.4832V12H75.6352V9.91999Z" fill="black"/>
<path d="M81.0073 9.91999V7.24799L85.5513 7.26399L85.5673 5.24799L81.0073 5.23199V2.71999H86.0793L86.0953 0.639994H78.9273V12H86.0793L86.0953 9.93599L81.0073 9.91999Z" fill="black"/>
<path d="M99.6708 0.639994H97.5908V8.46399L92.2788 0.639994H90.1988V12H92.2788V4.17599L97.5908 12H99.6708V0.639994Z" fill="black"/>
<path d="M110.518 9.31199L111.526 12H114.038L109.51 0.639994H107.238L102.71 12H105.206L106.23 9.31199H110.518ZM109.798 7.42399H106.934L108.374 3.64799L109.798 7.42399Z" fill="black"/>
<path d="M134.191 0.639994H132.095L128.431 9.48799L124.751 0.639994H122.671V12H124.751V5.93599L127.391 12H129.471L132.095 5.93599V12H134.191V0.639994Z" fill="black"/>
<path d="M148.237 3.32799C148.733 4.22399 148.989 5.23199 148.989 6.35199C148.989 7.47199 148.733 8.47999 148.253 9.37599C147.757 10.272 147.085 10.96 146.221 11.456C145.357 11.952 144.397 12.192 143.341 12.192C142.301 12.192 141.357 11.952 140.493 11.44C139.629 10.928 138.941 10.24 138.445 9.34399C137.949 8.44799 137.709 7.45599 137.709 6.35199C137.709 5.24799 137.949 4.23999 138.445 3.32799C138.925 2.43199 139.597 1.71199 140.461 1.19999C141.309 0.687994 142.269 0.415994 143.325 0.415994C144.381 0.415994 145.341 0.687994 146.205 1.19999C147.069 1.71199 147.741 2.43199 148.237 3.32799ZM145.757 9.00799C146.349 8.36799 146.653 7.48799 146.653 6.35199C146.653 5.61599 146.509 4.97599 146.237 4.39999C145.965 3.83999 145.581 3.40799 145.085 3.10399C144.573 2.79999 143.997 2.63999 143.325 2.63999C142.669 2.63999 142.093 2.79999 141.597 3.10399C141.101 3.42399 140.717 3.85599 140.445 4.41599C140.173 4.99199 140.045 5.63199 140.045 6.35199C140.045 7.07199 140.173 7.71199 140.461 8.25599C140.733 8.79999 141.117 9.23199 141.613 9.51999C142.109 9.82399 142.685 9.96799 143.341 9.96799C144.365 9.96799 145.165 9.64799 145.757 9.00799Z" fill="black"/>
<path d="M159.167 7.29599C159.647 7.07199 160.079 6.75199 160.495 6.33599C160.751 6.06399 160.943 5.72799 161.087 5.31199C161.231 4.91199 161.311 4.49599 161.311 4.06399C161.311 3.58399 161.215 3.11999 161.055 2.67199C160.879 2.23999 160.623 1.87199 160.303 1.58399C159.615 0.991994 158.639 0.687994 157.359 0.655993L154.639 0.639994H152.527V12H154.639V7.64799H157.071L158.927 12H161.295L159.167 7.29599ZM154.639 5.72799V2.63999L157.231 2.65599C157.807 2.65599 158.239 2.79999 158.527 3.05599C158.671 3.18399 158.783 3.35999 158.863 3.56799C158.927 3.77599 158.975 3.98399 158.975 4.20799C158.975 4.59199 158.879 4.89599 158.719 5.13599C158.431 5.53599 157.935 5.72799 157.231 5.72799H154.639Z" fill="black"/>
<path d="M171.966 1.35999C171.07 0.879993 170.062 0.623994 168.942 0.623994H164.846V12H168.942C170.062 12 171.086 11.76 171.982 11.28C172.878 10.8 173.566 10.144 174.078 9.27999C174.574 8.41599 174.83 7.43999 174.83 6.31999C174.83 5.23199 174.574 4.23999 174.062 3.37599C173.55 2.51199 172.862 1.83999 171.966 1.35999ZM171.566 9.10399C170.926 9.79199 170.062 10.128 168.942 10.128H166.942V2.51199H168.942C170.046 2.51199 170.926 2.86399 171.566 3.55199C172.206 4.23999 172.526 5.16799 172.526 6.31999C172.526 7.50399 172.206 8.43199 171.566 9.10399Z" fill="black"/>
<path d="M184.384 9.31199L185.392 12H187.904L183.376 0.639994H181.104L176.576 12H179.072L180.096 9.31199H184.384ZM183.664 7.42399H180.8L182.24 3.64799L183.664 7.42399Z" fill="black"/>
<path d="M197.592 7.29599C198.072 7.07199 198.504 6.75199 198.92 6.33599C199.176 6.06399 199.368 5.72799 199.512 5.31199C199.656 4.91199 199.736 4.49599 199.736 4.06399C199.736 3.58399 199.64 3.11999 199.48 2.67199C199.304 2.23999 199.048 1.87199 198.728 1.58399C198.04 0.991994 197.064 0.687994 195.784 0.655993L193.064 0.639994H190.952V12H193.064V7.64799H195.496L197.352 12H199.72L197.592 7.29599ZM193.064 5.72799V2.63999L195.656 2.65599C196.232 2.65599 196.664 2.79999 196.952 3.05599C197.096 3.18399 197.208 3.35999 197.288 3.56799C197.352 3.77599 197.4 3.98399 197.4 4.20799C197.4 4.59199 197.304 4.89599 197.144 5.13599C196.856 5.53599 196.36 5.72799 195.656 5.72799H193.064Z" fill="black"/>
<path d="M208.775 3.79199L210.855 3.24799C210.743 2.75199 210.487 2.28799 210.103 1.83999C209.719 1.40799 209.223 1.05599 208.631 0.799994C208.023 0.543994 207.383 0.415994 206.679 0.415994C205.991 0.415994 205.351 0.575994 204.775 0.879993C204.183 1.19999 203.719 1.61599 203.367 2.14399C203.015 2.68799 202.839 3.26399 202.839 3.90399C202.839 4.78399 203.063 5.48799 203.511 6.03199C203.959 6.57599 204.615 6.94399 205.447 7.11999L205.863 7.19999C206.791 7.39199 207.383 7.51999 207.671 7.61599C207.943 7.72799 208.167 7.88799 208.327 8.09599C208.487 8.31999 208.567 8.54399 208.567 8.76799C208.567 9.18399 208.391 9.50399 208.039 9.74399C207.687 9.98399 207.239 10.096 206.711 10.096C206.199 10.096 205.719 9.98399 205.287 9.74399C204.839 9.50399 204.599 9.16799 204.535 8.73599L202.455 9.03999C202.487 9.71199 202.695 10.272 203.111 10.752C203.511 11.232 204.023 11.584 204.647 11.824C205.271 12.064 205.927 12.176 206.615 12.176C207.319 12.176 207.991 12.048 208.631 11.792C209.271 11.536 209.783 11.136 210.167 10.608C210.551 10.096 210.759 9.47199 210.759 8.73599C210.759 7.83999 210.471 7.08799 209.927 6.47999C209.383 5.88799 208.615 5.50399 207.639 5.32799C207.415 5.29599 207.255 5.26399 207.143 5.24799C206.647 5.15199 206.295 5.08799 206.071 5.02399C205.703 4.95999 205.431 4.83199 205.255 4.62399C205.063 4.43199 204.983 4.19199 204.983 3.91999C204.983 3.80799 204.999 3.69599 205.031 3.58399C205.127 3.23199 205.335 2.97599 205.655 2.78399C205.975 2.59199 206.327 2.49599 206.743 2.49599C207.191 2.49599 207.607 2.62399 208.007 2.84799C208.407 3.07199 208.663 3.39199 208.775 3.79199Z" fill="black"/>
<path d="M218.852 6.39999L223.476 0.639994H220.596L216.404 5.98399V0.639994H214.308V12.032H216.404V9.43999L217.444 8.14399L220.484 12H223.364L218.852 6.39999Z" fill="black"/>
<path d="M233.237 9.31199L234.245 12H236.757L232.229 0.639994H229.957L225.429 12H227.925L228.949 9.31199H233.237ZM232.517 7.42399H229.653L231.093 3.64799L232.517 7.42399Z" fill="black"/>
</svg>
