<svg width="69" height="69" viewBox="0 0 69 69" fill="none" xmlns="http://www.w3.org/2000/svg">
<g clip-path="url(#clip0)">
<path d="M13.7261 32.6007V37.9199C13.7261 38.6415 13.1411 39.2269 12.4191 39.2269C9.84482 39.2269 8.4453 41.8663 8.25145 47.0764H12.4191C13.1411 47.0764 13.7261 47.6611 13.7261 48.3835V59.6148C13.7261 60.3364 13.1411 60.9209 12.4191 60.9209H1.30695C0.584924 60.9209 0 60.3364 0 59.6148V48.3835C0 45.8859 0.251585 43.5927 0.74731 41.5684C1.25596 39.4942 2.03628 37.68 3.06594 36.1764C4.12622 34.632 5.45269 33.4193 7.00856 32.575C8.57453 31.7257 10.3949 31.2946 12.4199 31.2946C13.1411 31.2946 13.7261 31.8796 13.7261 32.6007ZM30.5731 31.2946C28.5488 31.2946 26.7276 31.7255 25.1617 32.575C23.6057 33.4193 22.2792 34.632 21.2191 36.1764C20.1887 37.6808 19.409 39.4942 18.8996 41.5699C18.4039 43.5941 18.1532 45.8858 18.1532 48.3834V59.6147C18.1532 60.3363 18.7382 60.9208 19.4593 60.9208H30.5724C31.2934 60.9208 31.8784 60.3363 31.8784 59.6147V48.3834C31.8784 47.6609 31.2934 47.0763 30.5724 47.0763H26.4633C26.6547 41.8662 28.0346 39.2267 30.5724 39.2267C31.2934 39.2267 31.8784 38.6414 31.8784 37.9198V32.6007C31.8792 31.8796 31.2943 31.2946 30.5731 31.2946ZM67.6939 8.07922H56.5813C55.8598 8.07922 55.2744 8.66415 55.2744 9.38617V20.6167C55.2744 21.3386 55.8589 21.9237 56.5813 21.9237H60.7485C60.5551 27.1338 59.1552 29.7728 56.5813 29.7728C55.8598 29.7728 55.2744 30.3578 55.2744 31.0798V36.399C55.2744 37.1206 55.8589 37.706 56.5813 37.706C58.6056 37.706 60.4264 37.2742 61.9924 36.4257C63.5476 35.5804 64.8745 34.3694 65.9339 32.8233C66.9634 31.3201 67.744 29.5068 68.253 27.4315C68.7486 25.4071 69.0001 23.1148 69.0001 20.6167V9.38603C69.0008 8.66415 68.4146 8.07922 67.6939 8.07922ZM49.5404 8.07922H38.4279C37.7071 8.07922 37.1218 8.66415 37.1218 9.38617V20.6167C37.1218 21.3386 37.7071 21.9237 38.4279 21.9237H42.5369C42.3452 27.1338 40.9653 29.7728 38.4279 29.7728C37.7071 29.7728 37.1218 30.3578 37.1218 31.0798V36.399C37.1218 37.1206 37.7071 37.706 38.4279 37.706C40.4521 37.706 42.2737 37.2742 43.8397 36.4257C45.3955 35.5804 46.7216 34.3694 47.781 32.8233C48.8124 31.3201 49.5927 29.5068 50.1018 27.4306C50.5967 25.4071 50.8475 23.1148 50.8475 20.6177V9.38603C50.8474 8.66415 50.262 8.07922 49.5404 8.07922Z" fill="black" fill-opacity="0.1"/>
</g>
<defs>
<clipPath id="clip0">
<rect width="69" height="69" fill="white"/>
</clipPath>
</defs>
</svg>
